<svg width="363" height="107" viewBox="0 0 363 107" fill="none" xmlns="http://www.w3.org/2000/svg">
<path d="M193.834 86V48.6953H209.637C212.331 48.6953 214.628 49.1443 216.528 50.0424C218.428 50.9405 219.878 52.2185 220.88 53.8765C221.916 55.5345 222.434 57.5033 222.434 59.7831C222.434 62.0973 221.916 64.1007 220.88 65.7933C219.878 67.4513 218.41 68.7466 216.476 69.6792C214.576 70.6118 212.296 71.0781 209.637 71.0781H198.031V66.5186H209.378C211.83 66.5186 213.695 65.9314 214.973 64.757C216.286 63.5826 216.942 61.9419 216.942 59.8349C216.942 57.6933 216.303 56.0526 215.025 54.9127C213.747 53.7729 211.865 53.2029 209.378 53.2029H199.326V86H193.834ZM242.841 86C242.668 85.3437 242.547 84.6183 242.478 83.8239C242.444 83.0294 242.427 82.0623 242.427 80.9224H242.168V68.3321C242.168 66.6395 241.736 65.3788 240.872 64.5498C240.043 63.6862 238.713 63.2545 236.883 63.2545C235.121 63.2545 233.705 63.5999 232.634 64.2907C231.598 64.9815 230.993 65.966 230.821 67.244H225.691C225.933 64.757 227.056 62.7709 229.059 61.2856C231.062 59.8003 233.739 59.0577 237.09 59.0577C240.544 59.0577 243.135 59.8694 244.862 61.4929C246.589 63.0818 247.452 65.4306 247.452 68.5393V80.9224C247.452 81.7169 247.504 82.5286 247.608 83.3576C247.711 84.1866 247.867 85.0674 248.074 86H242.841ZM233.722 86.5181C231.028 86.5181 228.886 85.8618 227.297 84.5493C225.709 83.2021 224.914 81.3887 224.914 79.109C224.914 76.7602 225.743 74.9122 227.401 73.5651C229.094 72.1834 231.512 71.2508 234.655 70.7672L243.359 69.3683V73.1506L235.484 74.3941C233.722 74.6704 232.392 75.1367 231.494 75.793C230.631 76.4493 230.199 77.3992 230.199 78.6427C230.199 79.8516 230.596 80.767 231.391 81.3887C232.22 81.9759 233.411 82.2695 234.966 82.2695C237.038 82.2695 238.748 81.7687 240.095 80.767C241.477 79.7653 242.168 78.5045 242.168 76.9847L242.841 80.8188C242.219 82.6495 241.114 84.0657 239.525 85.0674C237.936 86.0345 236.002 86.5181 233.722 86.5181ZM254.398 86V59.5758H259.787V86H254.398ZM254.139 54.3946V48.3326H260.098V54.3946H254.139ZM267.351 86V59.5758H272.481V65.7933H272.74V86H267.351ZM286.107 86V69.0056C286.107 67.1749 285.641 65.8105 284.709 64.9125C283.81 64.0144 282.463 63.5653 280.667 63.5653C279.113 63.5653 277.731 63.9108 276.522 64.6016C275.348 65.2924 274.415 66.2423 273.724 67.4513C273.068 68.6602 272.74 70.0937 272.74 71.7517L272.066 65.4306C272.93 63.4617 274.26 61.9074 276.056 60.7675C277.852 59.6276 279.942 59.0577 282.325 59.0577C285.158 59.0577 287.385 59.8521 289.009 61.441C290.632 63.03 291.444 65.137 291.444 67.7621V86H286.107ZM309.156 86.5181C306.082 86.5181 303.819 85.81 302.368 84.3938C300.952 82.9431 300.244 80.8188 300.244 78.0209V53.5138L305.581 51.4931V78.0727C305.581 79.4544 305.943 80.4734 306.669 81.1297C307.394 81.7859 308.569 82.1141 310.192 82.1141C310.814 82.1141 311.366 82.0623 311.85 81.9587C312.334 81.855 312.748 81.7341 313.093 81.596V85.9482C312.714 86.1209 312.178 86.2591 311.487 86.3627C310.796 86.4663 310.019 86.5181 309.156 86.5181ZM294.959 63.8762V59.5758H313.093V63.8762H294.959ZM328.943 86.5181C326.283 86.5181 323.935 85.9309 321.897 84.7565C319.893 83.5821 318.322 81.9587 317.182 79.8862C316.042 77.8137 315.472 75.4303 315.472 72.7361C315.472 70.0073 316.025 67.624 317.13 65.586C318.27 63.5135 319.859 61.9074 321.897 60.7675C323.935 59.6276 326.266 59.0577 328.891 59.0577C331.447 59.0577 333.658 59.6104 335.523 60.7157C337.423 61.7865 338.874 63.289 339.875 65.2233C340.912 67.1577 341.43 69.4547 341.43 72.1143C341.43 72.5288 341.413 72.9261 341.378 73.306C341.378 73.6514 341.344 74.0141 341.274 74.3941H319.099V70.3527H337.492L336.145 71.9589C336.145 69.1265 335.506 66.9677 334.228 65.4824C332.95 63.9971 331.171 63.2545 328.891 63.2545C326.439 63.2545 324.487 64.1007 323.037 65.7933C321.62 67.4513 320.912 69.7655 320.912 72.7361C320.912 75.7412 321.62 78.09 323.037 79.7825C324.487 81.4751 326.491 82.3213 329.047 82.3213C330.601 82.3213 331.948 82.0105 333.088 81.3887C334.228 80.7324 335.074 79.7825 335.627 78.5391H340.704C339.841 81.026 338.373 82.9776 336.3 84.3938C334.263 85.81 331.81 86.5181 328.943 86.5181ZM346.942 86V59.5758H352.071V66.156H352.33V86H346.942ZM352.33 72.218L351.657 65.9487C352.278 63.7035 353.349 61.9937 354.869 60.8193C356.389 59.6449 358.202 59.0577 360.309 59.0577C361.104 59.0577 361.656 59.1268 361.967 59.2649V64.3425C361.795 64.2734 361.553 64.2389 361.242 64.2389C360.931 64.2044 360.551 64.1871 360.102 64.1871C357.511 64.1871 355.56 64.8606 354.247 66.2078C352.969 67.5549 352.33 69.5583 352.33 72.218Z" fill="black"/>
<path d="M14.924 86.132C11.2613 86.132 8.66467 85.0933 7.134 83.016C5.658 80.884 4.92 77.686 4.92 73.422C4.92 70.6887 5.35733 66.5887 6.232 61.122C7.16133 55.6007 8.446 48.3027 10.086 39.228L5.74 30.454C8.30933 28.814 11.0427 27.42 13.94 26.272C16.8373 25.124 19.7347 24.55 22.632 24.55C24.108 24.55 25.7207 24.7687 27.47 25.206C29.274 25.6433 30.6953 26.2447 31.734 27.01C35.834 25.37 39.524 24.55 42.804 24.55C46.3573 24.55 49.3367 25.37 51.742 27.01C54.202 28.65 56.0607 30.782 57.318 33.406C58.5753 36.03 59.204 38.8453 59.204 41.852C59.204 45.2413 58.3293 48.6033 56.58 51.938C54.8307 55.2727 52.152 58.0333 48.544 60.22C49.7467 63.6093 51.0587 66.78 52.48 69.732C53.956 72.6293 55.4867 75.1167 57.072 77.194C58.6573 79.2167 60.2153 80.6653 61.746 81.54C60.9807 82.36 59.9147 83.1253 58.548 83.836C57.1813 84.492 55.7327 85.0113 54.202 85.394C52.6713 85.8313 51.2773 86.05 50.02 86.05C47.6693 86.05 45.592 85.6673 43.788 84.902C41.984 84.1913 40.3713 82.852 38.95 80.884C37.5833 78.916 36.2713 76.1553 35.014 72.602L32.144 64.32C29.3013 64.32 26.4313 63.8827 23.534 63.008C22.9327 66.5067 22.632 69.0213 22.632 70.552C22.632 73.34 22.8233 75.6907 23.206 77.604C23.6433 79.5173 24.272 81.13 25.092 82.442C21.812 84.902 18.4227 86.132 14.924 86.132ZM27.142 54.07C30.258 54.07 32.8273 53.5233 34.85 52.43C36.9273 51.282 38.458 49.8607 39.442 48.166C40.4807 46.4167 41 44.6947 41 43C41 40.9227 40.3167 39.0913 38.95 37.506C37.5833 35.866 35.5333 35.046 32.8 35.046C31.3787 35.046 29.9573 35.2373 28.536 35.62C28.3173 37.096 28.044 38.8727 27.716 40.95C27.388 42.9727 27.0327 45.132 26.65 47.428C26.2673 49.6693 25.8027 51.856 25.256 53.988C25.5293 54.0427 25.8027 54.07 26.076 54.07C26.404 54.07 26.7593 54.07 27.142 54.07ZM74.6527 86.132C70.99 86.132 68.3933 85.0933 66.8627 83.016C65.3867 80.884 64.6487 77.686 64.6487 73.422C64.6487 70.6887 65.086 66.5887 65.9607 61.122C66.89 55.6007 68.1747 48.3027 69.8147 39.228L65.4687 30.454C68.038 28.814 70.7713 27.42 73.6687 26.272C76.566 25.124 79.4633 24.55 82.3607 24.55C86.2967 24.55 89.3853 25.1513 91.6267 26.354C93.868 27.5567 95.5353 29.2513 96.6287 31.438C97.7767 33.6247 98.624 36.194 99.1707 39.146C99.772 42.098 100.319 45.3233 100.811 48.822C101.303 52.266 102.041 55.874 103.025 59.646C104.009 63.418 105.512 67.2447 107.535 71.126L109.503 69.814C107.972 66.8073 106.687 63.3087 105.649 59.318C104.665 55.3273 104.173 51.3367 104.173 47.346C104.173 43.3553 104.829 39.638 106.141 36.194C107.507 32.75 109.53 29.962 112.209 27.83C114.887 25.6433 118.222 24.55 122.213 24.55C123.47 24.55 124.782 24.6867 126.149 24.96C127.57 25.1787 128.8 25.5613 129.839 26.108C129.347 29.06 128.773 32.3127 128.117 35.866C127.461 39.3647 126.777 42.918 126.067 46.526C125.411 50.134 124.782 53.5507 124.181 56.776C123.634 60.0013 123.169 62.8167 122.787 65.222C122.459 67.5727 122.295 69.24 122.295 70.224C122.295 73.0667 122.513 75.4173 122.951 77.276C123.388 79.08 124.044 80.6107 124.919 81.868C123.333 82.9067 121.857 83.7267 120.491 84.328C119.124 84.9293 117.648 85.3667 116.063 85.64C114.532 85.9133 112.728 86.05 110.651 86.05C106.387 86.05 102.806 85.0387 99.9087 83.016C97.066 80.9933 94.77 78.2053 93.0207 74.652C91.2713 71.0987 89.9593 67.026 89.0847 62.434C88.2647 57.842 87.718 52.9767 87.4447 47.838H86.1327C85.4767 50.8993 84.848 53.9607 84.2467 57.022C83.7 60.0833 83.2353 62.8167 82.8527 65.222C82.5247 67.6273 82.3607 69.404 82.3607 70.552C82.3607 73.34 82.552 75.6907 82.9347 77.604C83.372 79.5173 84.0007 81.13 84.8207 82.442C81.5407 84.902 78.1513 86.132 74.6527 86.132Z" fill="#DF3913"/>
<path d="M153.623 34.3574V24.7961H136.412C135.905 24.7961 135.419 24.9976 135.06 25.3562C134.701 25.7148 134.5 26.2012 134.5 26.7084V51.5678H172.745V26.7122C172.745 26.205 172.544 25.7186 172.185 25.36C171.827 25.0014 171.34 24.7999 170.833 24.7999H165.096V38.1934C165.096 38.7006 164.895 39.187 164.536 39.5456C164.178 39.9042 163.691 40.1057 163.184 40.1057C162.677 40.1057 162.19 39.9042 161.832 39.5456C161.473 39.187 161.272 38.7006 161.272 38.1934V24.7999H157.447V34.3612C157.447 34.8684 157.246 35.3548 156.887 35.7134C156.528 36.072 156.042 36.2735 155.535 36.2735C155.028 36.2735 154.541 36.072 154.183 35.7134C153.824 35.3548 153.623 34.8646 153.623 34.3574ZM172.745 55.3961H134.5V59.236C134.5 61.2646 135.306 63.2102 136.74 64.6447C138.175 66.0791 140.12 66.885 142.149 66.885H147.886V80.2632C147.886 81.7847 148.49 83.2439 149.566 84.3197C150.642 85.3956 152.101 86 153.623 86C155.144 86 156.603 85.3956 157.679 84.3197C158.755 83.2439 159.359 81.7847 159.359 80.2632V66.885H165.096C167.125 66.885 169.07 66.0791 170.505 64.6447C171.939 63.2102 172.745 61.2646 172.745 59.236V55.3961Z" fill="#DF3913"/>
</svg>
