<svg width="301" height="103" viewBox="0 0 301 103" fill="none" xmlns="http://www.w3.org/2000/svg">
<path d="M150.897 51V23.6849H163.872C165.895 23.6849 167.627 24.039 169.069 24.7472C170.536 25.4554 171.661 26.4417 172.445 27.7063C173.255 28.9709 173.659 30.4505 173.659 32.145C173.659 33.8396 173.255 35.3318 172.445 36.6217C171.636 37.9115 170.498 38.9232 169.031 39.6567C167.589 40.3648 165.87 40.7189 163.872 40.7189H155.525V36.2423H163.568C164.908 36.2423 165.945 35.8755 166.679 35.1421C167.438 34.3833 167.817 33.397 167.817 32.183C167.817 30.969 167.438 29.9952 166.679 29.2618C165.945 28.5283 164.908 28.1616 163.568 28.1616H156.739V51H150.897ZM187.684 51C187.532 50.4436 187.418 49.8492 187.342 49.2169C187.292 48.5846 187.267 47.8512 187.267 47.0166H187.115V37.8736C187.115 37.0896 186.849 36.4826 186.318 36.0526C185.812 35.5973 185.054 35.3697 184.042 35.3697C183.081 35.3697 182.309 35.5341 181.728 35.8629C181.171 36.1917 180.805 36.6722 180.627 37.3045H175.202C175.455 35.5594 176.353 34.1178 177.896 32.9796C179.439 31.8415 181.551 31.2725 184.232 31.2725C187.014 31.2725 189.138 31.8921 190.605 33.1314C192.072 34.3707 192.805 36.1538 192.805 38.4806V47.0166C192.805 47.6488 192.843 48.2938 192.919 48.9514C193.02 49.5837 193.172 50.2665 193.375 51H187.684ZM180.931 51.3794C179.009 51.3794 177.479 50.8988 176.341 49.9377C175.202 48.9514 174.633 47.6488 174.633 46.0302C174.633 44.2345 175.304 42.7928 176.644 41.7053C178.01 40.5925 179.907 39.8716 182.335 39.5428L187.987 38.7462V42.0467L183.283 42.7675C182.271 42.9193 181.525 43.1975 181.045 43.6022C180.564 44.0068 180.324 44.5633 180.324 45.2714C180.324 45.9037 180.552 46.3843 181.007 46.7131C181.462 47.0418 182.069 47.2062 182.828 47.2062C184.017 47.2062 185.028 46.8901 185.863 46.2578C186.698 45.6002 187.115 44.8415 187.115 43.9815L187.646 47.0166C187.09 48.4582 186.242 49.5457 185.104 50.2792C183.966 51.0126 182.575 51.3794 180.931 51.3794ZM196.364 51V31.6518H202.055V51H196.364ZM196.174 29.0721V22.9262H202.245V29.0721H196.174ZM206.59 51V31.6518H212.166V36.2043H212.28V51H206.59ZM220.057 51V39.0117C220.057 37.9495 219.779 37.1528 219.223 36.6217C218.692 36.0905 217.908 35.825 216.871 35.825C215.985 35.825 215.189 36.0273 214.481 36.432C213.798 36.8366 213.254 37.3931 212.849 38.1012C212.47 38.8094 212.28 39.644 212.28 40.6051L211.787 35.9388C212.419 34.5224 213.342 33.397 214.556 32.5623C215.796 31.7024 217.313 31.2725 219.109 31.2725C221.259 31.2725 222.903 31.8795 224.041 33.0935C225.179 34.2822 225.748 35.8882 225.748 37.9115V51H220.057ZM238.444 51.4173C235.965 51.4173 234.119 50.823 232.905 49.6342C231.716 48.4202 231.122 46.5866 231.122 44.1333V27.3269L236.813 25.2024V44.323C236.813 45.1829 237.053 45.8278 237.534 46.2578C238.014 46.6878 238.76 46.9027 239.772 46.9027C240.151 46.9027 240.505 46.8648 240.834 46.7889C241.163 46.7131 241.492 46.6245 241.821 46.5234V50.8482C241.492 51.0253 241.024 51.1644 240.417 51.2656C239.835 51.3667 239.178 51.4173 238.444 51.4173ZM227.518 35.9767V31.6518H241.821V35.9767H227.518ZM245.046 51V31.6518H250.736V51H245.046ZM244.856 29.0721V22.9262H250.926V29.0721H244.856ZM255.271 51V31.6518H260.848V36.2043H260.962V51H255.271ZM268.739 51V39.0117C268.739 37.9495 268.461 37.1528 267.904 36.6217C267.373 36.0905 266.589 35.825 265.552 35.825C264.667 35.825 263.87 36.0273 263.162 36.432C262.479 36.8366 261.936 37.3931 261.531 38.1012C261.151 38.8094 260.962 39.644 260.962 40.6051L260.469 35.9388C261.101 34.5224 262.024 33.397 263.238 32.5623C264.477 31.7024 265.995 31.2725 267.791 31.2725C269.94 31.2725 271.584 31.8795 272.722 33.0935C273.861 34.2822 274.43 35.8882 274.43 37.9115V51H268.739ZM287.601 59.1566C284.92 59.1566 282.732 58.5875 281.038 57.4494C279.369 56.3113 278.382 54.7685 278.079 52.821H283.466C283.668 53.3015 284.098 53.6683 284.756 53.9212C285.439 54.1741 286.299 54.3006 287.336 54.3006C289.055 54.3006 290.307 53.9718 291.091 53.3142C291.875 52.6566 292.267 51.6323 292.267 50.2412V46.0302L292.571 46.1061C292.318 47.5224 291.585 48.6479 290.371 49.4825C289.157 50.2918 287.652 50.6965 285.856 50.6965C284.136 50.6965 282.631 50.3045 281.341 49.5204C280.077 48.7111 279.09 47.5856 278.382 46.144C277.674 44.7024 277.32 43.0078 277.32 41.0604C277.32 39.0876 277.687 37.3678 278.42 35.9008C279.154 34.4339 280.178 33.2958 281.493 32.4865C282.834 31.6771 284.389 31.2725 286.159 31.2725C287.98 31.2725 289.46 31.7024 290.598 32.5623C291.762 33.4223 292.444 34.5983 292.647 36.0905L292.381 36.1285V31.6518H297.958V50.1654C297.958 52.9475 297.035 55.1352 295.189 56.7286C293.342 58.3472 290.813 59.1566 287.601 59.1566ZM287.829 46.3337C289.169 46.3337 290.257 45.8784 291.091 44.9679C291.926 44.0321 292.343 42.7043 292.343 40.9845C292.343 39.2646 291.913 37.9495 291.053 37.039C290.219 36.1032 289.119 35.6353 287.753 35.6353C286.438 35.6353 285.35 36.1032 284.49 37.039C283.656 37.9748 283.238 39.3026 283.238 41.0224C283.238 42.7423 283.656 44.0574 284.49 44.9679C285.35 45.8784 286.463 46.3337 287.829 46.3337Z" fill="black"/>
<path d="M163.336 84.3637C159.942 84.3637 157.234 83.5285 155.213 81.8581C153.22 80.1877 152.048 77.8034 151.697 74.7051H154.93C155.227 76.9412 156.075 78.6251 157.476 79.7567C158.877 80.8882 160.817 81.454 163.296 81.454C165.397 81.454 166.973 81.0633 168.024 80.282C169.102 79.4738 169.641 78.3018 169.641 76.7661C169.641 75.446 169.277 74.3952 168.549 73.6139C167.822 72.8326 166.69 72.186 165.155 71.6741L160.265 69.9768C157.786 69.1146 155.954 68.0774 154.769 66.865C153.583 65.6257 152.991 64.063 152.991 62.1771C152.991 60.6145 153.381 59.2674 154.163 58.1358C154.944 56.9773 156.048 56.0748 157.476 55.4282C158.904 54.7816 160.561 54.4583 162.447 54.4583C165.357 54.4583 167.687 55.2261 169.439 56.7618C171.19 58.2705 172.2 60.4259 172.47 63.2278H169.236C168.886 61.2072 168.159 59.7254 167.054 58.7824C165.977 57.8395 164.414 57.368 162.366 57.368C160.426 57.368 158.918 57.7586 157.84 58.5399C156.762 59.3213 156.224 60.4259 156.224 61.8538C156.224 63.0662 156.601 64.0361 157.355 64.7635C158.109 65.4909 159.281 66.1241 160.871 66.6629L166.084 68.4815C168.347 69.2628 170.045 70.327 171.176 71.6741C172.308 72.9943 172.874 74.6781 172.874 76.7257C172.874 79.1505 172.038 81.0364 170.368 82.3835C168.725 83.7036 166.381 84.3637 163.336 84.3637ZM188.208 84.4041C186.241 84.4041 184.504 83.9461 182.995 83.0301C181.486 82.0871 180.301 80.8074 179.439 79.1909C178.576 77.5744 178.145 75.7154 178.145 73.6139C178.145 71.5124 178.563 69.6669 179.398 68.0774C180.26 66.4609 181.459 65.2081 182.995 64.319C184.531 63.4299 186.295 62.9854 188.289 62.9854C190.202 62.9854 191.859 63.4029 193.26 64.2381C194.688 65.0733 195.779 66.2453 196.533 67.7541C197.314 69.2628 197.705 71.041 197.705 73.0885C197.705 73.358 197.692 73.6139 197.665 73.8564C197.665 74.0989 197.638 74.3683 197.584 74.6646H180.57V71.957H195.604L194.553 73.4523C194.553 70.9736 194.001 69.0742 192.896 67.7541C191.818 66.407 190.283 65.7334 188.289 65.7334C186.241 65.7334 184.584 66.4474 183.318 67.8753C182.079 69.2763 181.459 71.1757 181.459 73.5735C181.459 76.0252 182.079 77.992 183.318 79.4738C184.584 80.9286 186.268 81.6561 188.37 81.6561C189.69 81.6561 190.848 81.3732 191.845 80.8074C192.842 80.2147 193.57 79.3795 194.028 78.3018H197.099C196.425 80.1877 195.294 81.683 193.704 82.7876C192.142 83.8653 190.31 84.4041 188.208 84.4041ZM204.594 84V63.3895H207.625V68.6431H207.827V84H204.594ZM207.827 73.2502L207.301 68.3603C207.786 66.609 208.648 65.2754 209.888 64.3594C211.127 63.4434 212.555 62.9854 214.171 62.9854C214.845 62.9854 215.303 63.0392 215.545 63.147V66.2588C215.411 66.2049 215.222 66.178 214.98 66.178C214.737 66.151 214.441 66.1375 214.091 66.1375C212.043 66.1375 210.48 66.7572 209.403 67.9965C208.352 69.2089 207.827 70.9601 207.827 73.2502ZM227.791 84L219.263 63.3895H222.739L229.852 81.8177H228.558L235.631 63.3895H238.944L230.417 84H227.791ZM244.667 84V63.3895H247.9V84H244.667ZM244.424 58.7016V54.9028H248.142V58.7016H244.424ZM264.481 84.4041C262.595 84.4041 260.911 83.9461 259.429 83.0301C257.974 82.0871 256.816 80.8074 255.953 79.1909C255.118 77.5474 254.701 75.6884 254.701 73.6139C254.701 71.5394 255.118 69.7073 255.953 68.1178C256.816 66.5282 257.974 65.2754 259.429 64.3594C260.911 63.4434 262.581 62.9854 264.44 62.9854C265.976 62.9854 267.35 63.2817 268.562 63.8744C269.802 64.4672 270.812 65.3158 271.593 66.4204C272.401 67.4981 272.913 68.7644 273.129 70.2192H270.138C269.869 68.8991 269.249 67.8214 268.279 66.9862C267.309 66.151 266.057 65.7334 264.521 65.7334C263.201 65.7334 262.056 66.0567 261.086 66.7033C260.116 67.3499 259.362 68.266 258.823 69.4514C258.284 70.6368 258.015 72.0243 258.015 73.6139C258.015 75.2035 258.284 76.6045 258.823 77.8168C259.362 79.0292 260.116 79.9722 261.086 80.6457C262.083 81.3193 263.241 81.6561 264.561 81.6561C266.043 81.6561 267.283 81.2519 268.279 80.4437C269.276 79.6085 269.909 78.5308 270.179 77.2107H273.169C272.927 78.6386 272.388 79.9048 271.553 81.0095C270.745 82.0871 269.734 82.9223 268.522 83.515C267.309 84.1078 265.962 84.4041 264.481 84.4041ZM288.253 84.4041C286.287 84.4041 284.549 83.9461 283.04 83.0301C281.531 82.0871 280.346 80.8074 279.484 79.1909C278.622 77.5744 278.191 75.7154 278.191 73.6139C278.191 71.5124 278.608 69.6669 279.443 68.0774C280.306 66.4609 281.504 65.2081 283.04 64.319C284.576 63.4299 286.341 62.9854 288.334 62.9854C290.247 62.9854 291.904 63.4029 293.305 64.2381C294.733 65.0733 295.824 66.2453 296.578 67.7541C297.36 69.2628 297.75 71.041 297.75 73.0885C297.75 73.358 297.737 73.6139 297.71 73.8564C297.71 74.0989 297.683 74.3683 297.629 74.6646H280.615V71.957H295.649L294.598 73.4523C294.598 70.9736 294.046 69.0742 292.941 67.7541C291.864 66.407 290.328 65.7334 288.334 65.7334C286.287 65.7334 284.63 66.4474 283.363 67.8753C282.124 69.2763 281.504 71.1757 281.504 73.5735C281.504 76.0252 282.124 77.992 283.363 79.4738C284.63 80.9286 286.314 81.6561 288.415 81.6561C289.735 81.6561 290.894 81.3732 291.891 80.8074C292.887 80.2147 293.615 79.3795 294.073 78.3018H297.144C296.471 80.1877 295.339 81.683 293.75 82.7876C292.187 83.8653 290.355 84.4041 288.253 84.4041Z" fill="black" fill-opacity="0.7"/>
<path d="M50.8448 74.1763L51.4775 68.2234C51.4775 65.8077 50.4902 63.9671 48.5154 62.7017C46.5598 61.4172 44.4988 60.8516 42.3324 61.005C40.1659 61.1392 38.6513 61.8677 37.7885 63.1906C37.3476 63.8233 37.1271 64.571 37.1271 65.4338L36.9833 73.141C36.9833 74.1955 37.1463 75.7581 37.4722 77.8287C37.7981 79.9184 37.9611 81.4906 37.9611 82.545C37.9611 84.4047 37.4338 85.3346 36.3794 85.3346C35.3249 85.3346 34.7977 84.4335 34.7977 82.6313C34.7977 81.4426 34.9702 79.7363 35.3153 77.5123C35.6604 75.2883 35.8521 73.6012 35.8905 72.4508C35.948 71.3005 35.9768 68.8465 35.9768 65.0887C35.9768 64.0917 35.67 62.9414 35.0565 61.6377C34.443 60.334 33.4748 58.5414 32.1519 56.2599C30.829 53.9784 29.7458 51.9653 28.9022 50.2206L28.0394 49.7317C27.5793 50.5753 26.7645 50.9971 25.595 50.9971L23.1793 51.0834C21.5305 51.0834 20.2938 50.6807 19.4694 49.8755L18.8655 50.4507C18.923 51.16 18.9518 52.6746 18.9518 54.9945L18.923 62.0403C18.923 64.1492 18.9614 65.7022 19.0381 66.6992L19.5845 70.9266C19.5845 71.7127 19.3161 72.1057 18.7792 72.1057C18.2424 72.1057 17.974 71.7415 17.974 71.0129L18.4341 67.4469C18.4341 66.5841 18.1753 65.8939 17.6577 65.3763C17.1592 64.8778 16.4977 64.6286 15.6733 64.6286C14.8681 64.6286 14.1491 64.9832 13.5164 65.6926C12.9029 66.4212 12.5962 67.3606 12.5962 68.5109C12.5962 69.6613 12.8071 71.2142 13.2289 73.1698C13.6507 75.1445 13.8615 76.5633 13.8615 77.426C13.8615 79.2282 13.2193 80.1293 11.9347 80.1293C10.6502 80.1293 10.0079 79.2474 10.0079 77.4836C10.0079 76.6592 10.1901 75.2212 10.5543 73.1698C10.9378 71.1184 11.1295 69.4887 11.1295 68.2809C11.1295 67.073 10.8515 66.0761 10.2955 65.29C9.73951 64.5231 9.10683 64.1397 8.39745 64.1397C7.68808 64.1397 7.08415 64.3793 6.58567 64.8586C6.08719 65.3571 5.83795 65.9706 5.83795 66.6992L6.61443 73.5149C6.61443 74.6844 6.18306 75.2692 5.3203 75.2692C4.45755 75.2692 4.02618 74.6748 4.02618 73.4861C4.02618 72.7959 4.20831 71.5881 4.57258 69.8626C4.93686 68.1563 5.10941 66.8238 5.09024 65.8652C5.07106 64.9066 5.06148 52.5021 5.06148 28.6518C5.06148 27.4631 4.6972 26.5141 3.96866 25.8047L4.54383 25.2296C5.29154 25.9581 6.24057 26.3224 7.39091 26.3224H33.1584C37.1846 26.3224 39.8879 26.447 41.2683 26.6962C42.6679 26.9263 43.8853 27.1755 44.9206 27.444C45.9751 27.7124 46.857 28.0479 47.5664 28.4505C48.2949 28.8339 49.0235 29.3228 49.752 29.9172C50.4997 30.4923 51.0941 31.1538 51.535 31.9015C52.5512 33.6078 53.0592 35.4196 53.0592 37.3368C53.0592 39.2541 52.9059 40.8262 52.5991 42.0532C52.3115 43.2611 51.8226 44.4018 51.1324 45.4755C49.637 47.7953 47.0104 48.9552 43.2526 48.9552L43.0226 49.6167C44.2304 50.096 45.0356 50.7574 45.4383 51.601C47.1254 55.2821 48.3716 57.6211 49.1769 58.6181C49.9821 59.5958 50.7298 60.3819 51.42 60.9762C52.1102 61.5706 53.0976 62.1745 54.3821 62.788C55.6667 63.4015 56.4431 63.8041 56.7116 63.9959C56.98 64.1684 57.1142 64.3122 57.1142 64.4272C57.1142 66.3445 57.373 68.8081 57.8907 71.8182C58.4083 74.8282 58.6671 76.7646 58.6671 77.6274C58.6671 78.4901 58.6288 79.1132 58.5521 79.4966C58.4946 79.8801 58.3508 80.254 58.1207 80.6182C57.8907 81.0017 57.5551 81.1934 57.1142 81.1934C56.6732 81.1934 56.3377 80.877 56.1076 80.2444C55.8967 79.6117 55.7913 78.8352 55.7913 77.9149C55.7913 76.9947 55.9159 75.3459 56.1651 72.9685C56.4144 70.6103 56.539 68.8273 56.539 67.6194C56.539 65.2229 55.7625 64.0246 54.2096 64.0246C53.4427 64.0246 52.8675 64.1588 52.4841 64.4272C52.1198 64.6957 51.9377 65.2421 51.9377 66.0665C51.9377 66.9101 52.1102 68.2425 52.4553 70.0639C52.8004 71.8853 52.973 73.2561 52.973 74.1763C52.973 75.1158 52.6183 75.5855 51.9089 75.5855C51.1995 75.5855 50.8448 75.1158 50.8448 74.1763ZM31.6918 35.8702L24.9048 36.0715C22.1248 36.0715 20.313 35.6593 19.4694 34.8349L18.8655 35.3813C19.6324 36.129 20.0158 37.0876 20.0158 38.2571V40.1839C20.0158 41.3343 19.6324 42.2929 18.8655 43.0598L19.4694 43.6349C20.2938 42.7913 22.0002 42.3696 24.5884 42.3696L31.8643 42.6284C33.8007 42.6284 35.2961 42.3791 36.3506 41.8807C37.4243 41.363 37.9611 40.4236 37.9611 39.0623C37.9611 38.1996 37.6639 37.5286 37.0696 37.0493C36.4752 36.5508 35.7563 36.2344 34.9127 36.1002C34.0691 35.9468 32.9955 35.8702 31.6918 35.8702ZM67.2015 73.6587L67.8917 65.8652C67.8917 65.2517 67.5466 64.7436 66.8564 64.341C65.7252 63.7083 64.3448 63.3919 62.7152 63.3919C60.5295 63.3919 59.0245 63.8233 58.2001 64.6861C57.8358 65.0695 57.6537 65.6255 57.6537 66.3541C57.6537 67.1018 57.8742 68.3959 58.3151 70.2364C58.7561 72.077 58.9766 73.3711 58.9766 74.1188C58.9766 74.8857 58.8328 75.4896 58.5452 75.9306C58.2768 76.3907 57.8742 76.6208 57.3373 76.6208C56.8005 76.6208 56.3883 76.3907 56.1007 75.9306C55.8131 75.4896 55.6694 74.8857 55.6694 74.1188C55.6694 73.3519 55.8994 72.029 56.3596 70.1502C56.8389 68.2713 57.0785 66.8525 57.0785 65.8939L57.0498 30.6361C57.0498 28.3738 56.3596 26.4853 54.9791 24.9707L55.5831 24.3668C57.136 25.7472 59.0245 26.4374 61.2485 26.4374H69.8472C71.0743 26.4374 72.1096 26.2936 72.9531 26.006C73.8159 25.6993 74.5061 25.1049 75.0238 24.223L75.9728 24.6831C75.4743 25.8718 75.2251 26.9934 75.2251 28.0479C75.2251 28.9106 76.7397 31.0771 79.7689 34.5473C83.7184 39.0719 86.2587 42.1107 87.3899 43.6637C88.521 45.2166 89.2592 46.4724 89.6043 47.431H91.3298C90.3903 46.0506 89.9206 44.1046 89.9206 41.5931C89.9206 40.4236 90.0644 38.6789 90.352 36.3591C90.6396 34.02 90.7834 32.2658 90.7834 31.0963C90.7834 27.952 89.7864 25.9102 87.7925 24.9707L88.3964 24.3668C89.9494 25.7472 91.8378 26.4374 94.0618 26.4374H99.9573C102.181 26.4374 104.07 25.7472 105.623 24.3668L106.198 24.9707C104.837 26.5045 104.156 28.393 104.156 30.6361L104.098 65.7501C104.098 66.5745 104.29 67.8016 104.674 69.4312C105.057 71.08 105.249 72.3166 105.249 73.141C105.249 74.3681 104.779 74.9816 103.84 74.9816C102.9 74.9816 102.431 74.3681 102.431 73.141C102.431 72.3358 102.613 71.1471 102.977 69.575C103.341 68.022 103.523 66.9484 103.523 66.3541C103.523 65.7789 103.332 65.3667 102.948 65.1174C102.565 64.8682 102.191 64.7436 101.827 64.7436H90.467C88.8565 64.7436 88.0513 66.2103 88.0513 69.1436C88.0513 70.3515 88.2718 72.0962 88.7127 74.3777C89.1729 76.6783 89.4029 78.4134 89.4029 79.5829C89.4029 81.2509 88.7799 82.0849 87.5337 82.0849C86.2875 82.0849 85.6644 81.2413 85.6644 79.5542C85.6644 78.4805 85.904 76.918 86.3833 74.8665C86.8818 72.8151 87.1406 71.2717 87.1598 70.2364L87.2173 66.4116C87.2748 64.6286 87.0927 63.4686 86.6709 62.9318L72.8956 45.4755C72.5314 44.9962 72.1287 43.9992 71.6878 42.4846L69.9335 42.5421C70.9305 43.5774 71.429 44.7277 71.429 45.9931V62.4142L71.9754 76.9659C71.9754 77.2727 71.8795 77.5315 71.6878 77.7424C71.5152 77.9725 71.266 78.0875 70.9401 78.0875C70.6333 78.0875 70.3745 77.9533 70.1636 77.6849C69.9527 77.4356 69.8472 77.148 69.8472 76.8221L70.1923 65.7789C70.1923 65.5488 70.1061 65.3379 69.9335 65.1462C69.761 64.9545 69.5597 64.8586 69.3296 64.8586C68.8311 64.8586 68.5819 65.2421 68.5819 66.009C68.5819 66.7758 68.7065 68.0316 68.9557 69.7763C69.2241 71.521 69.3583 72.7193 69.3583 73.3711C69.3583 74.8282 68.9941 75.5567 68.2655 75.5567C67.5562 75.5567 67.2015 74.9241 67.2015 73.6587Z" fill="#DF3913"/>
<path d="M127.623 33.3574V23.7961H110.412C109.905 23.7961 109.419 23.9976 109.06 24.3562C108.701 24.7148 108.5 25.2012 108.5 25.7084V50.5678H146.745V25.7122C146.745 25.205 146.544 24.7186 146.185 24.36C145.827 24.0014 145.34 23.7999 144.833 23.7999H139.096V37.1934C139.096 37.7006 138.895 38.187 138.536 38.5456C138.178 38.9042 137.691 39.1057 137.184 39.1057C136.677 39.1057 136.19 38.9042 135.832 38.5456C135.473 38.187 135.272 37.7006 135.272 37.1934V23.7999H131.447V33.3612C131.447 33.8684 131.246 34.3548 130.887 34.7134C130.528 35.072 130.042 35.2735 129.535 35.2735C129.028 35.2735 128.541 35.072 128.183 34.7134C127.824 34.3548 127.623 33.8646 127.623 33.3574ZM146.745 54.3961H108.5V58.236C108.5 60.2646 109.306 62.2102 110.74 63.6447C112.175 65.0791 114.12 65.885 116.149 65.885H121.886V79.2632C121.886 80.7847 122.49 82.2439 123.566 83.3197C124.642 84.3956 126.101 85 127.623 85C129.144 85 130.603 84.3956 131.679 83.3197C132.755 82.2439 133.359 80.7847 133.359 79.2632V65.885H139.096C141.125 65.885 143.07 65.0791 144.505 63.6447C145.939 62.2102 146.745 60.2646 146.745 58.236V54.3961Z" fill="#DF3913"/>
</svg>
